<?xml version="1.0" standalone="no"?>
<!DOCTYPE svg PUBLIC "-//W3C//DTD SVG 20010904//EN"
 "http://www.w3.org/TR/2001/REC-SVG-20010904/DTD/svg10.dtd">
<svg version="1.0" xmlns="http://www.w3.org/2000/svg"
 width="414.000000pt" height="227.000000pt" viewBox="0 0 414.000000 227.000000"
 preserveAspectRatio="xMidYMid meet">

<g transform="translate(0.000000,227.000000) scale(0.100000,-0.100000)"
fill="#000000" stroke="none">
<path d="M2140 2195 c-9 -11 -9 -15 -1 -15 7 0 9 -4 6 -10 -7 -12 5 -13 22 -2
8 5 8 11 -2 25 -11 15 -14 15 -25 2z"/>
<path d="M2334 2165 c7 -36 -7 -48 -31 -24 -24 24 -31 3 -12 -35 21 -44 24
-60 9 -51 -6 4 -18 1 -26 -6 -20 -16 -30 -3 -13 17 12 15 11 16 -9 10 -15 -5
-21 -4 -19 6 2 7 2 10 0 5 -3 -4 -10 -4 -16 -1 -9 5 -9 3 0 -6 9 -10 9 -20 -3
-43 -13 -25 -14 -32 -2 -43 11 -11 38 -20 71 -23 5 -1 6 -5 3 -10 -9 -14 5
-42 16 -35 5 3 9 -2 8 -12 -4 -35 0 -42 23 -38 12 2 8 -1 -10 -7 -18 -7 -39
-9 -49 -5 -15 6 -15 8 -1 24 27 30 7 44 -57 41 -63 -4 -70 2 -55 53 11 41 12
38 -6 38 -8 0 -15 -6 -15 -14 0 -24 -20 -29 -41 -10 -12 11 -19 28 -17 42 3
22 -1 25 -34 26 -23 1 -40 -4 -43 -12 -3 -8 2 -12 13 -10 12 2 18 -5 20 -25 3
-26 1 -28 -20 -23 -13 3 -17 3 -10 0 6 -3 12 -11 12 -19 0 -7 7 -18 15 -25 8
-7 15 -19 15 -26 0 -12 -6 -12 -36 1 -45 19 -65 19 -41 1 12 -9 14 -16 7 -21
-18 -11 -1 -25 31 -25 25 0 29 -4 29 -29 0 -35 -19 -52 -48 -44 -13 3 -22 1
-22 -6 0 -5 7 -8 15 -5 11 4 13 2 9 -9 -3 -9 -17 -14 -37 -13 -24 1 -33 -4
-35 -18 -3 -16 0 -18 22 -12 21 5 31 1 49 -20 22 -25 24 -25 57 -12 40 17 54
31 67 73 6 19 17 30 28 30 10 0 20 6 23 13 6 19 32 14 31 -5 0 -11 -3 -13 -6
-5 -5 13 -23 7 -23 -9 0 -6 17 -8 39 -5 25 2 42 0 45 -7 3 -8 11 -4 22 11 17
23 50 31 41 10 -21 -51 -21 -52 -4 -45 27 10 32 -15 7 -35 -17 -13 -18 -18 -6
-18 10 0 13 -6 10 -15 -4 -8 -2 -15 4 -15 5 0 12 -10 16 -22 10 -40 -16 -48
-165 -48 -155 0 -149 3 -149 -82 0 -44 -2 -49 -17 -43 -10 5 -39 13 -65 18
-39 9 -55 7 -104 -11 l-57 -21 -44 45 c-24 25 -62 54 -86 64 -52 24 -150 26
-201 5 -57 -24 -116 -84 -148 -150 -15 -33 -28 -57 -28 -53 0 4 -6 37 -14 75
-8 37 -17 84 -20 104 -6 32 -11 38 -39 42 -65 10 -82 17 -105 42 -28 33 -50
24 -27 -11 15 -24 15 -24 -18 -24 l-33 0 -33 -222 c-18 -123 -34 -224 -35
-225 -1 -2 -12 11 -25 27 l-22 30 25 43 c36 60 50 135 36 186 -14 53 -64 109
-118 133 -43 19 -43 20 -27 45 22 34 11 42 -19 13 -15 -13 -59 -31 -111 -45
l-85 -22 -41 38 c-53 49 -114 77 -184 85 l-55 7 0 -55 c0 -30 3 -109 7 -176 5
-107 8 -122 25 -128 18 -5 19 -18 18 -202 l-1 -197 22 3 c44 7 134 57 178 99
24 24 46 43 48 43 2 0 1 -27 -3 -60 l-7 -60 111 0 c94 0 112 -3 120 -17 9 -15
13 -14 45 10 20 15 37 22 39 17 4 -13 189 -26 321 -22 95 3 107 5 103 20 -2 9
-7 35 -11 56 l-6 39 34 -36 c102 -109 270 -101 374 17 l42 47 27 -18 c21 -13
48 -18 105 -18 l77 0 -1 -55 -2 -55 314 2 c172 1 316 4 318 7 2 2 -1 49 -8
104 l-13 101 25 20 c22 19 25 19 34 4 6 -9 27 -36 48 -59 49 -55 108 -78 181
-72 l55 5 3 -56 3 -56 215 0 215 0 3 48 3 48 39 -34 c104 -88 266 -72 354 36
72 90 93 169 76 284 -14 90 -42 144 -101 197 -55 50 -96 66 -169 66 -69 0
-115 -16 -171 -61 l-39 -31 0 54 c0 30 5 59 11 65 16 16 1 71 -22 86 -10 6
-19 23 -19 36 0 15 -17 43 -45 72 l-45 48 -15 -29 c-10 -20 -27 -32 -53 -39
-50 -15 -48 -15 -82 21 -23 24 -33 29 -42 20 -9 -9 -9 -12 1 -12 8 0 11 -10 9
-27 -2 -21 1 -27 12 -25 11 3 12 0 4 -8 -16 -16 -68 -2 -54 15 5 6 7 15 4 18
-8 7 -34 -17 -34 -31 0 -6 -18 -25 -40 -42 -49 -39 -51 -66 -10 -110 26 -27
30 -40 30 -86 0 -30 -1 -54 -3 -54 -2 0 -25 7 -51 16 -32 11 -61 14 -91 9 -25
-3 -48 -6 -52 -6 -5 0 -12 15 -16 35 -11 45 -69 111 -119 137 -55 28 -159 35
-223 15 -28 -9 -53 -12 -58 -7 -5 5 -7 39 -5 75 3 67 -5 84 -22 44 -5 -13 -9
-17 -9 -9 -1 8 6 23 15 33 16 17 18 17 30 0 9 -13 16 -14 24 -6 9 9 7 15 -9
26 -19 13 -19 16 -5 36 15 22 10 76 -8 70 -5 -2 -9 -7 -8 -11 1 -13 -28 -37
-45 -37 -12 0 -15 5 -10 21 5 15 4 19 -4 15 -6 -4 -14 1 -18 11 -4 10 -11 21
-16 24 -6 4 -5 12 2 20 6 8 20 25 31 39 15 18 18 20 13 6 -6 -17 -3 -18 25
-13 30 6 41 -1 25 -17 -13 -12 -11 -36 2 -36 7 0 15 -6 17 -12 3 -7 22 -13 46
-13 38 0 40 1 25 18 -12 12 -12 17 -3 17 7 0 4 7 -8 18 -23 20 -33 59 -22 87
4 11 3 33 -3 49 l-10 29 -13 -29 c-11 -25 -12 -26 -13 -7 -1 21 -43 63 -63 63
-6 0 -8 -14 -4 -35z m966 -365 c0 -29 -21 -41 -70 -39 -20 1 -21 2 -5 6 10 3
29 12 42 20 18 12 21 19 13 33 -14 27 -12 34 5 20 8 -7 15 -25 15 -40z m-1030
36 c0 -2 -7 -7 -16 -10 -8 -3 -12 -2 -9 4 6 10 25 14 25 6z m908 -85 c3 -16
-1 -22 -10 -19 -7 3 -15 15 -16 27 -3 16 1 22 10 19 7 -3 15 -15 16 -27z m-71
-3 c-3 -8 -6 -5 -6 6 -1 11 2 17 5 13 3 -3 4 -12 1 -19z m-2626 -114 c178 -89
223 -377 84 -532 -46 -51 -126 -99 -145 -87 -6 4 -10 73 -10 185 0 155 -2 180
-16 188 -13 8 -17 34 -22 146 l-5 136 34 -6 c19 -4 55 -17 80 -30z m1886 14
c-3 -8 -6 -5 -6 6 -1 11 2 17 5 13 3 -3 4 -12 1 -19z m-1165 -87 c4 -3 27
-116 52 -251 25 -135 49 -258 52 -273 l6 -28 -74 3 -73 3 -3 73 c-2 63 -5 73
-20 70 -14 -3 -18 -17 -20 -76 l-3 -72 -65 0 c-72 0 -95 19 -55 46 25 18 26
31 6 54 -12 14 -11 40 15 215 17 110 33 212 36 228 l6 27 66 -6 c37 -4 70 -9
74 -13z m412 8 c42 -11 119 -77 141 -120 l14 -26 -70 -21 c-70 -20 -71 -20
-90 -1 -48 48 -139 -2 -139 -76 0 -89 86 -149 135 -95 20 22 14 27 -45 32 -35
3 -35 3 -35 53 l0 50 127 3 127 3 7 -27 c19 -76 -12 -192 -71 -262 -67 -79
-206 -97 -282 -36 -142 115 -159 340 -34 464 64 64 131 82 215 59z m594 -36
c11 -27 24 -59 28 -73 7 -20 10 -11 14 45 l5 70 61 3 61 3 6 -188 c4 -103 7
-232 7 -285 l0 -98 -65 0 c-60 0 -66 2 -75 24 -14 38 -30 41 -30 7 l0 -31 -96
0 -96 0 7 47 c5 32 17 59 37 82 42 47 59 94 59 157 0 52 -27 134 -50 148 -6 4
-11 35 -11 72 l0 64 59 0 59 0 20 -47z m-1364 23 c18 -8 45 -29 59 -47 49 -66
45 -144 -14 -232 l-30 -46 55 -69 c31 -38 56 -71 56 -74 0 -6 -100 -81 -104
-77 -1 2 -20 36 -42 74 l-39 70 -3 -67 -3 -68 -61 0 -60 0 6 78 c3 42 12 112
18 155 12 81 6 142 -24 245 -12 40 -11 45 7 58 25 18 135 18 179 0z m1127 -87
c40 -14 85 -53 105 -91 17 -32 18 -115 3 -155 -13 -34 -55 -80 -91 -99 -36
-19 -112 -18 -149 2 -28 14 -30 18 -22 47 9 36 11 168 3 236 -5 43 -4 44 30
57 45 16 78 17 121 3z m974 -8 c22 -10 50 -29 62 -42 67 -74 54 -204 -27 -273
-39 -32 -67 -40 -131 -34 -58 6 -112 44 -141 100 l-19 37 35 52 c20 28 43 75
52 105 12 41 21 55 42 63 42 15 83 12 127 -8z"/>
<path d="M500 1310 c0 -63 7 -71 33 -42 27 30 17 82 -18 96 -12 4 -15 -5 -15
-54z"/>
<path d="M1131 1340 c-1 -8 -4 -25 -7 -37 -5 -17 -2 -23 10 -23 17 0 20 23 6
55 -6 13 -9 15 -9 5z"/>
<path d="M780 1370 c0 -25 4 -39 10 -35 6 3 10 19 10 35 0 16 -4 32 -10 35 -6
4 -10 -10 -10 -35z"/>
<path d="M1907 1350 c-3 -14 -14 -20 -31 -20 -31 0 -33 -11 -6 -28 16 -10 18
-16 10 -38 -14 -36 -13 -38 14 -21 20 14 26 14 42 2 28 -21 35 -18 28 10 -4
16 0 34 10 50 16 24 16 25 -8 25 -16 0 -27 7 -31 20 -3 11 -10 20 -15 20 -4 0
-10 -9 -13 -20z"/>
<path d="M2866 1352 c-6 -17 -15 -22 -39 -22 l-32 -1 23 -19 c20 -16 22 -25
17 -52 -7 -32 -7 -32 17 -16 20 14 27 14 43 2 27 -20 32 -18 27 16 -3 20 2 37
13 50 18 19 17 20 -7 20 -15 0 -32 9 -40 22 l-15 23 -7 -23z"/>
<path d="M2150 2142 c0 -4 9 -8 20 -9 11 -1 18 2 15 8 -7 11 -35 12 -35 1z"/>
<path d="M1098 2134 c-5 -4 -8 -16 -8 -28 0 -14 3 -17 11 -9 6 6 9 19 7 28 -1
9 -6 13 -10 9z"/>
<path d="M816 2121 c-3 -4 3 -16 14 -26 24 -22 25 -43 4 -73 -15 -22 -14 -27
12 -80 50 -103 50 -103 34 -116 -17 -12 -54 -66 -48 -70 45 -30 60 -34 104
-31 81 5 135 17 141 31 6 15 -32 81 -50 87 -9 3 -9 11 2 33 20 44 24 50 55 94
25 35 28 45 18 61 -7 10 -12 25 -12 34 0 19 -29 8 -52 -20 -15 -17 -17 -18
-18 -3 0 22 -38 48 -68 48 -12 0 -33 -10 -45 -23 l-23 -22 -22 27 c-12 14 -22
33 -22 42 0 17 -15 22 -24 7z m140 -86 c1 -8 -4 -15 -12 -15 -8 0 -14 5 -14
10 0 6 5 10 11 10 5 0 7 6 3 13 -4 6 -3 8 1 4 5 -4 10 -14 11 -22z m5 -69 c-8
-10 -9 -16 -1 -21 5 -3 9 -14 9 -23 -1 -15 -2 -15 -6 1 -2 9 -9 17 -14 17 -5
0 -9 -8 -10 -17 0 -15 -2 -14 -11 4 -14 29 -4 53 23 53 17 0 19 -3 10 -14z"/>
<path d="M2110 2105 c-11 -13 -10 -14 4 -9 9 3 16 10 16 15 0 13 -6 11 -20 -6z"/>
<path d="M2141 2104 c0 -11 3 -14 6 -6 3 7 2 16 -1 19 -3 4 -6 -2 -5 -13z"/>
<path d="M3129 2080 c-10 -7 -11 -12 -3 -20 9 -9 17 -8 33 2 11 7 21 15 21 18
0 9 -35 9 -51 0z"/>
<path d="M3074 2001 c20 -22 26 -25 26 -13 0 4 -10 13 -22 21 -23 14 -23 14
-4 -8z"/>
<path d="M3198 2004 c-16 -8 -25 -20 -22 -28 6 -16 -33 -29 -40 -12 -3 7 -5 7
-5 -2 -1 -7 -5 -10 -11 -7 -18 11 -11 -11 9 -29 20 -18 61 -14 61 6 0 5 14 28
31 49 32 41 24 49 -23 23z m-41 -70 c-3 -3 -12 -4 -19 -1 -8 3 -5 6 6 6 11 1
17 -2 13 -5z"/>
<path d="M1943 1994 c-3 -8 0 -21 7 -27 10 -9 11 -9 6 1 -4 7 -2 19 4 27 9 11
9 15 1 15 -6 0 -14 -7 -18 -16z"/>
<path d="M3315 1910 c-3 -6 1 -7 9 -4 18 7 21 14 7 14 -6 0 -13 -4 -16 -10z"/>
<path d="M3190 1875 c-7 -9 -11 -17 -9 -20 3 -2 10 5 17 15 14 24 10 26 -8 5z"/>
<path d="M439 958 c-5 -19 -2 -88 4 -88 4 0 7 20 6 45 -2 37 -6 55 -10 43z"/>
<path d="M432 840 c0 -14 2 -19 5 -12 2 6 2 18 0 25 -3 6 -5 1 -5 -13z"/>
<path d="M631 814 c0 -11 3 -14 6 -6 3 7 2 16 -1 19 -3 4 -6 -2 -5 -13z"/>
<path d="M436 778 c-8 -44 -21 -55 -43 -36 -9 7 -14 8 -10 2 3 -6 -10 -30 -29
-53 -20 -22 -33 -41 -30 -41 4 0 -19 -30 -50 -67 -54 -63 -95 -137 -108 -194
-5 -24 -3 -26 19 -21 18 3 25 0 25 -11 0 -20 40 -59 54 -54 6 2 17 -3 25 -10
8 -9 24 -12 42 -8 23 5 31 1 45 -20 15 -24 23 -26 55 -22 23 3 45 0 55 -8 10
-7 26 -10 36 -7 10 2 24 0 31 -6 7 -6 23 -9 35 -5 12 3 28 0 36 -6 10 -9 16
-3 29 31 9 24 21 61 27 83 9 36 9 34 5 -23 -3 -34 -12 -76 -21 -93 -8 -17 -11
-28 -5 -24 27 16 42 70 48 175 5 97 9 112 30 131 23 22 30 39 15 39 -4 0 -12
-10 -17 -22 -6 -13 -17 -22 -24 -20 -7 1 -10 -2 -6 -7 3 -6 -3 -19 -13 -29
-13 -13 -21 -39 -24 -87 -8 -90 -33 -118 -110 -120 -29 -1 -56 3 -59 8 -4 5
-19 10 -35 12 -16 1 -36 4 -44 8 -8 3 -37 13 -63 22 -58 18 -117 61 -117 84 0
9 -6 24 -13 33 -22 28 -9 83 29 119 l34 33 59 -32 c52 -28 60 -30 71 -17 7 9
11 17 9 18 -2 2 -28 14 -56 27 -58 26 -64 39 -32 71 l21 21 28 -27 c30 -29 66
-30 64 -2 -2 26 66 28 92 3 19 -20 19 -50 -1 -42 -39 16 -47 16 -20 0 17 -9
33 -21 36 -27 4 -5 21 -10 38 -11 17 0 31 -4 31 -9 0 -4 4 -6 9 -3 11 7 23
-22 15 -36 -4 -6 -29 -8 -67 -3 -51 5 -59 4 -54 -9 8 -21 -10 -31 -28 -16 -12
10 -15 9 -15 -2 0 -12 17 -15 85 -16 81 0 85 1 85 21 0 22 32 79 44 78 20 -3
18 2 -11 20 -41 26 -46 65 -8 55 43 -11 29 19 -22 49 -18 11 -33 26 -33 35 -1
9 -7 4 -15 -12 -18 -32 -44 -42 -77 -29 -32 12 -50 36 -50 66 0 14 -8 31 -18
38 -9 7 -19 19 -22 27 -3 8 -8 -2 -12 -22z m23 -25 c1 10 6 15 11 12 7 -4 7
-12 0 -25 -5 -10 -7 -27 -4 -37 3 -10 -2 -7 -10 7 -8 14 -15 34 -15 45 l0 20
9 -20 c8 -18 9 -18 9 -2z m11 -85 c0 -5 6 -6 13 -2 6 4 9 3 4 -1 -4 -5 -16
-10 -27 -12 -14 -2 -20 3 -20 17 0 13 5 18 15 14 8 -4 15 -10 15 -16z m203
-25 c-7 -2 -21 -2 -30 0 -10 3 -4 5 12 5 17 0 24 -2 18 -5z m-70 -28 c-3 -9
-8 -14 -10 -11 -3 3 -2 9 2 15 9 16 15 13 8 -4z"/>
<path d="M600 760 c6 -11 13 -20 16 -20 2 0 0 9 -6 20 -6 11 -13 20 -16 20 -2
0 0 -9 6 -20z"/>
<path d="M545 699 c-4 -6 -5 -12 -2 -15 2 -3 7 2 10 11 7 17 1 20 -8 4z"/>
<path d="M710 606 c0 -2 7 -7 16 -10 8 -3 12 -2 9 4 -6 10 -25 14 -25 6z"/>
<path d="M450 495 c-7 -8 -17 -12 -24 -8 -6 4 -5 -1 3 -10 16 -20 22 -22 19
-4 -2 6 5 11 14 11 10 -1 14 4 11 12 -6 17 -8 17 -23 -1z"/>
<path d="M295 239 c-4 -6 -5 -12 -2 -15 2 -3 7 2 10 11 7 17 1 20 -8 4z"/>
<path d="M260 210 c0 -5 5 -10 11 -10 5 0 7 5 4 10 -3 6 -8 10 -11 10 -2 0 -4
-4 -4 -10z"/>
</g>
</svg>
